# xmcd
#
# Track frame offsets:
#	150
#	23953
#	33503
#	46043
#	62238
#	80278
#	94223
#	114043
#	130120
#	146408
#	161745
#	174675
#	191120
#	212860
#	231443
#	250138
#	263053
#	285155
#	299593
#	312430
#	324033
#	336873
#
# Disc length: 4650
#
# Revision: 3
# Processed by: cddbd v1.5.1PL0 Copyright (c) Steve Scherf et al.
# Submitted via: ExactAudioCopy v0.90b4
# Normalized: r2:TDELIM( - )
#
DISCID=3d122816
DTITLE=Various Artist - 100% Blues and Soul
DYEAR=1995
DGENRE=
TTITLE0=Muddy Waters - Mannish Boy
TTITLE1=James Brown - Papa's Got a Brand New Bag Pt 1
TTITLE2=Aretha Franklin - Today I Sing the Blues
TTITLE3=BB King - Ain't Nobody Home
TTITLE4=The Commitments - Mustang Sally
TTITLE5=Howlin' Wolf - Smokestack Lightnin'
TTITLE6=Screamin' Jay Hawkins - Heart Attack and Vine
TTITLE7=John Mayall and The Bluesbreakers - All Your Love
TTITLE8=Ike and Tina Turner - River Deep - Mountain High
TTITLE9=John Lee Hooker with Ry Cooder - This Is Hip
TTITLE10=Fontella Bass - Rescue Me
TTITLE11=Stevie Ray Vaughan and Double Trouble - Pride and Joy
TTITLE12=George Thorogood and The Destroyers - Bad To the Bone
TTITLE13=Robert Cray - Smoking Gun
TTITLE14=Dire Straits - Six Blade Knife
TTITLE15=Fleetwood Mac - Black Magic Woman
TTITLE16=Canned Heat - On the Road Again
TTITLE17=Buddy Guy - Mary Ann
TTITLE18=Al Green - Tired of Being Alone
TTITLE19=Etta James - I'd Rather Go Blind
TTITLE20=JJ Cale - Cocaine
TTITLE21=John Lee Hooker - Boom Boom
EXTD=
EXTT0=
EXTT1=
EXTT2=
EXTT3=
EXTT4=
EXTT5=
EXTT6=
EXTT7=
EXTT8=
EXTT9=
EXTT10=
EXTT11=
EXTT12=
EXTT13=
EXTT14=
EXTT15=
EXTT16=
EXTT17=
EXTT18=
EXTT19=
EXTT20=
EXTT21=
PLAYORDER=
